<svg xmlns="http://www.w3.org/2000/svg" width="400" height="300" viewBox="0 0 400 300" role="img" aria-labelledby="title desc">
  <title id="title">Marxia brand fried egg and sausage illustration</title>
  <desc id="desc">Signature Marxia styling featuring fried egg, artisan sausage, and brand banner.</desc>
  <defs>
    <linearGradient id="bgGradient" x1="0%" y1="0%" x2="100%" y2="100%">
      <stop offset="0%" stop-color="#ffded8" />
      <stop offset="100%" stop-color="#ffd4a3" />
    </linearGradient>
    <linearGradient id="bannerGradient" x1="0%" y1="0%" x2="100%" y2="0%">
      <stop offset="0%" stop-color="#5d2e8c" />
      <stop offset="100%" stop-color="#9a4dc2" />
    </linearGradient>
  </defs>
  <rect width="400" height="300" rx="36" fill="url(#bgGradient)" />
  <g transform="translate(60 54)">
    <rect x="36" y="20" width="208" height="140" rx="32" fill="#fffaf3" opacity="0.9" />
    <rect x="48" y="34" width="184" height="112" rx="24" fill="#ffffff" />
    <g transform="translate(72 54)">
      <ellipse cx="52" cy="44" rx="44" ry="36" fill="#ffffff" />
      <circle cx="52" cy="44" r="18" fill="#ffc857" />
      <path d="M128 10c32 0 52 20 52 40s-20 40-52 40-52-20-52-40 20-40 52-40z" fill="#d16a35" />
      <path d="M128 26c16 0 26 10 26 24s-10 24-26 24-26-10-26-24 10-24 26-24z" fill="#f39767" />
    </g>
  </g>
  <path d="M60 210h280l-44 44H104z" fill="url(#bannerGradient)" opacity="0.9" />
  <text x="200" y="240" text-anchor="middle" font-size="32" font-family="'Montserrat', 'Arial', sans-serif" fill="#ffffff" font-weight="600">Marxia</text>
</svg>
