<svg xmlns="http://www.w3.org/2000/svg" width="400" height="300" viewBox="0 0 400 300" role="img" aria-labelledby="title desc">
  <title id="title">Fanta cola soft drink illustration</title>
  <desc id="desc">Vibrant orange soft drink bottle placeholder inspired by Fanta branding.</desc>
  <defs>
    <linearGradient id="fantaBody" x1="0%" y1="0%" x2="0%" y2="100%">
      <stop offset="0%" stop-color="#ff9f1c" />
      <stop offset="60%" stop-color="#ff7f11" />
      <stop offset="100%" stop-color="#d45d00" />
    </linearGradient>
  </defs>
  <rect width="400" height="300" rx="36" fill="#fff7ed" />
  <g transform="translate(150 40)">
    <path d="M34 0h12c4 0 6 4 6 8v24c0 6 2 10 6 14l12 12c4 4 6 8 6 14v112c0 16-10 30-30 30s-30-14-30-30V72c0-6 2-10 6-14l12-12c4-4 6-8 6-14V8c0-4 2-8 6-8z" fill="url(#fantaBody)" />
    <rect x="14" y="56" width="64" height="30" rx="12" fill="#ffffff" opacity="0.9" />
    <text x="46" y="76" text-anchor="middle" font-size="16" font-family="'Montserrat', 'Arial', sans-serif" font-weight="600" fill="#ff7f11">Fanta</text>
  </g>
</svg>
