<svg xmlns="http://www.w3.org/2000/svg" width="400" height="300" viewBox="0 0 400 300" role="img" aria-labelledby="title desc">
  <title id="title">Manzana cola soft drink illustration</title>
  <desc id="desc">Apple-flavored soda placeholder inspired by Manzana cola branding.</desc>
  <defs>
    <linearGradient id="manzanaBody" x1="0%" y1="0%" x2="0%" y2="100%">
      <stop offset="0%" stop-color="#96d35f" />
      <stop offset="60%" stop-color="#67b53f" />
      <stop offset="100%" stop-color="#2f7d1f" />
    </linearGradient>
  </defs>
  <rect width="400" height="300" rx="36" fill="#f2fff2" />
  <g transform="translate(150 40)">
    <path d="M34 0h12c4 0 6 4 6 8v24c0 6 2 10 6 14l12 12c4 4 6 8 6 14v112c0 16-10 30-30 30s-30-14-30-30V72c0-6 2-10 6-14l12-12c4-4 6-8 6-14V8c0-4 2-8 6-8z" fill="url(#manzanaBody)" />
    <rect x="16" y="54" width="60" height="32" rx="12" fill="#ffffff" opacity="0.9" />
    <text x="46" y="76" text-anchor="middle" font-size="16" font-family="'Montserrat', 'Arial', sans-serif" font-weight="600" fill="#2f7d1f">Manzana</text>
  </g>
  <path d="M196 210c0-14 12-24 24-24 14 0 24 12 24 24s-10 24-24 24c-12 0-24-10-24-24z" fill="#f0544f" opacity="0.8" />
</svg>
